<svg width="28" height="28" viewBox="0 0 28 28" fill="none" xmlns="http://www.w3.org/2000/svg">
<path d="M21.1913 4.59632C20.2502 4.59632 19.4874 5.35937 19.4874 6.30026C19.4874 7.24152 20.2503 8.00446 21.1913 8.00446C22.1322 8.00446 22.8952 7.24152 22.8952 6.30026C22.8952 5.35925 22.1322 4.59632 21.1913 4.59632ZM19.8126 0H7.92527C3.54856 0 0 3.57013 0 7.97403V19.4369C0 23.8409 3.54843 27.4112 7.92527 27.4112H19.8126C24.1894 27.4112 27.7376 23.8408 27.7376 19.4369V7.97415C27.7376 3.57026 24.1894 0 19.8126 0ZM25.1457 18.4037C25.1457 22.6774 23.2171 24.9824 18.6889 24.9824H9.0037C4.52299 24.9824 2.54682 22.7677 2.54682 18.4037V8.94709C2.54682 4.1934 4.49281 2.36874 9.0037 2.36874H18.6889C22.9175 2.36874 25.1457 4.37347 25.1457 8.94709V18.4037ZM13.7928 6.59419C9.88037 6.59419 6.70904 9.76577 6.70904 13.6777C6.70904 17.5897 9.88049 20.7611 13.7928 20.7611C17.7048 20.7611 20.876 17.5897 20.876 13.6777C20.876 9.76577 17.7048 6.59419 13.7928 6.59419ZM13.7928 18.2864C11.2472 18.2864 9.1839 16.2232 9.1839 13.6777C9.1839 11.1324 11.2472 9.06918 13.7928 9.06918C16.3375 9.06918 18.4007 11.1324 18.4007 13.6777C18.4007 16.2232 16.3375 18.2864 13.7928 18.2864Z" fill="#343434"/>
</svg>
